<svg width="22" height="18" viewBox="0 0 22 18" fill="none" xmlns="http://www.w3.org/2000/svg">
<path d="M19.8 0H2.19995C1.61158 0.0089557 1.05077 0.250825 0.640437 0.672591C0.230105 1.09436 0.00373722 1.66161 0.0109524 2.25L-4.75354e-05 15.75C-0.00486261 16.3396 0.22379 16.9071 0.635983 17.3287C1.04818 17.7502 1.61042 17.9916 2.19995 18H19.8C20.3895 17.9916 20.9517 17.7502 21.3639 17.3287C21.7761 16.9071 22.0048 16.3396 22 15.75V2.25C22.0048 1.66043 21.7761 1.0929 21.3639 0.671341C20.9517 0.24978 20.3895 0.00843324 19.8 0ZM19.8 15.75H2.19995V4.5L11 10.125L19.8 4.5V15.75ZM11 7.875L2.19995 2.25H19.8L11 7.875Z" fill="#08A6E4"/>
</svg>
