<svg width="44" height="52" xmlns="http://www.w3.org/2000/svg"><path d="M21.819 28h.351a9.627 9.627 0 0 0 7.428-3.284c4.065-4.669 3.381-12.675 3.326-13.441-.3-5.734-2.949-8.478-5.14-9.765A11.522 11.522 0 0 0 22.114 0h-.177a11.538 11.538 0 0 0-5.68 1.476C14.04 2.756 11.35 5.5 11.084 11.29c-.074.755-.739 8.768 3.326 13.441A9.647 9.647 0 0 0 21.819 28Zm-7.912-16.454v-.086c.358-7.715 5.72-8.542 8.019-8.542h.126c2.845.064 7.679 1.249 8.008 8.546a.216.216 0 0 0 0 .087c0 .075.739 7.394-2.587 11.245a6.946 6.946 0 0 1-5.425 2.3h-.107a6.813 6.813 0 0 1-5.414-2.3c-3.348-3.836-2.631-11.185-2.62-11.25Z"/><path d="M44 41.372v-.3c-.064-2.121-.2-7.084-4.851-8.67l-.11-.034a30.899 30.899 0 0 1-8.9-4.053 1.446 1.446 0 1 0-1.66 2.369 33.352 33.352 0 0 0 9.77 4.47c2.495.891 2.773 3.557 2.848 6.016a2.162 2.162 0 0 0 0 .267 19.468 19.468 0 0 1-.225 3.312c-1.71.974-8.515 4.384-18.863 4.384-10.348 0-17.155-3.423-18.898-4.408a18.435 18.435 0 0 1-.225-3.312v-.267c.075-2.444.353-5.113 2.848-6.016a33.665 33.665 0 0 0 9.77-4.47 1.445 1.445 0 0 0 .38-2.034 1.447 1.447 0 0 0-2.041-.335 30.561 30.561 0 0 1-8.868 4.064l-.11.034C.219 33.987.08 38.946 0 41.059c.005.089.005.178 0 .267v.034a16.814 16.814 0 0 0 .545 4.854c.11.275.307.508.56.662.323.214 8.022 5.125 20.91 5.125 12.89 0 20.585-4.922 20.91-5.125.252-.161.446-.396.557-.673A17.02 17.02 0 0 0 44 41.372Z"/></svg>