<svg width="22" height="22" viewBox="0 0 22 22" fill="none" xmlns="http://www.w3.org/2000/svg">
<path d="M5.022 9.656C6.63264 12.8054 9.19458 15.3674 12.344 16.978L14.788 14.534C14.933 14.388 15.116 14.2855 15.3163 14.2384C15.5166 14.1912 15.7261 14.2011 15.921 14.267C17.2013 14.6875 18.5404 14.9012 19.888 14.9C20.1826 14.9005 20.465 15.0177 20.6734 15.2259C20.8818 15.4341 20.9992 15.7164 21 16.011V19.889C20.9992 20.1834 20.8819 20.4655 20.6737 20.6737C20.4655 20.8819 20.1834 20.9992 19.889 21C17.4084 21.0003 14.952 20.5119 12.6602 19.5627C10.3683 18.6135 8.28593 17.2222 6.53187 15.4681C4.77782 13.7141 3.38647 11.6317 2.4373 9.33982C1.48814 7.04798 0.999737 4.59161 1 2.111C1.00079 1.81659 1.1181 1.53446 1.32628 1.32628C1.53446 1.1181 1.81659 1.00079 2.111 1H6C6.29441 1.00079 6.57654 1.1181 6.78472 1.32628C6.9929 1.53446 7.11021 1.81659 7.111 2.111C7.10889 3.45865 7.32259 4.79793 7.744 6.078C7.8068 6.27411 7.81407 6.48377 7.765 6.68376C7.71593 6.88374 7.61244 7.06623 7.466 7.211L5.022 9.656Z" stroke="#08A6E4" stroke-width="2"/>
</svg>
